<svg width="12" height="11" viewBox="0 0 12 11" fill="none" xmlns="http://www.w3.org/2000/svg">
<path d="M5.52419 0.983803C5.75265 0.280698 6.74735 0.280696 6.97581 0.983801L7.70639 3.2323C7.80855 3.54673 8.10157 3.75963 8.43219 3.75963L10.7964 3.75963C11.5357 3.75963 11.8431 4.70565 11.245 5.14019L9.33229 6.52984C9.06481 6.72417 8.95289 7.06864 9.05506 7.38308L9.78564 9.63157C10.0141 10.3347 9.20935 10.9194 8.61126 10.4848L6.69857 9.09516C6.4311 8.90083 6.0689 8.90083 5.80143 9.09516L3.88874 10.4848C3.29064 10.9194 2.48591 10.3347 2.71436 9.63157L3.44494 7.38307C3.54711 7.06864 3.43519 6.72417 3.16771 6.52984L1.25502 5.14019C0.656927 4.70565 0.96431 3.75963 1.7036 3.75963L4.06781 3.75963C4.39843 3.75963 4.69145 3.54674 4.79361 3.2323L5.52419 0.983803Z" fill="#FDB022"/>
</svg>
